{
    "asset" : {
        "generator" : "Khronos glTF Blender I/O v1.2.75",
        "version" : "2.0"
    },
    "scene" : 0,
    "scenes" : [
        {
            "name" : "Scene",
            "nodes" : [
                0
            ]
        }
    ],
    "nodes" : [
        {
            "mesh" : 0,
            "name" : "woodden-giraffe",
            "scale" : [
                0.07397700101137161,
                0.07397700101137161,
                0.07397700101137161
            ]
        }
    ],
    "meshes" : [
        {
            "name" : "woodden-giraffe_mesh",
            "primitives" : [
                {
                    "attributes" : {
                        "POSITION" : 0,
                        "NORMAL" : 1
                    },
                    "indices" : 2
                }
            ]
        }
    ],
    "accessors" : [
        {
            "bufferView" : 0,
            "componentType" : 5126,
            "count" : 22618,
            "max" : [
                1.6098039150238037,
                14.439297676086426,
                1.287664771080017
            ],
            "min" : [
                -1.2977876663208008,
                -0.01621667668223381,
                -1.148740291595459
            ],
            "type" : "VEC3"
        },
        {
            "bufferView" : 1,
            "componentType" : 5126,
            "count" : 22618,
            "type" : "VEC3"
        },
        {
            "bufferView" : 2,
            "componentType" : 5123,
            "count" : 126762,
            "type" : "SCALAR"
        }
    ],
    "bufferViews" : [
        {
            "buffer" : 0,
            "byteLength" : 271416,
            "byteOffset" : 0
        },
        {
            "buffer" : 0,
            "byteLength" : 271416,
            "byteOffset" : 271416
        },
        {
            "buffer" : 0,
            "byteLength" : 253524,
            "byteOffset" : 542832
        }
    ],
    "buffers" : [
        {
            "byteLength" : 796356,
            "uri" : "data:application/octet-stream;base64,"
        }
    ]
}
